<svg width="32" height="32" viewBox="0 0 32 32" fill="none" xmlns="http://www.w3.org/2000/svg">
<path fill-rule="evenodd" clip-rule="evenodd" d="M21.4216 20.5499L26.4311 25.5583C26.6688 25.796 26.6688 26.189 26.4311 26.4266C26.3123 26.55 26.1523 26.6094 25.9969 26.6094C25.8415 26.6094 25.6815 26.5454 25.5627 26.4266L20.5532 21.4182C19.0083 22.7617 16.9926 23.5751 14.7895 23.5751C9.94453 23.5751 6 19.6314 6 14.7875C6 9.94366 9.93996 6 14.7895 6C19.6345 6 23.579 9.93909 23.579 14.7875C23.579 16.9901 22.7654 19.0054 21.4216 20.5499ZM14.7848 7.2338C10.6208 7.2338 7.22937 10.6199 7.22937 14.7875C7.22937 18.9551 10.6208 22.3458 14.7848 22.3458C18.9533 22.3458 22.3402 18.9505 22.3402 14.7875C22.3402 10.6245 18.9533 7.2338 14.7848 7.2338Z" fill="#1E1D1A"/>
</svg>
